<svg version="1.2" xmlns="http://www.w3.org/2000/svg" viewBox="0 0 28 28" width="28" height="28">
	<title>1 (1)</title>
	<defs>
		<clipPath clipPathUnits="userSpaceOnUse" id="cp1">
			<path d="m4 4h20v20h-20z"/>
		</clipPath>
	</defs>
	<style>
		.s0 { fill: #6e7a8a } 
		.s1 { fill: #ffffff } 
	</style>
	<path fill-rule="evenodd" class="s0" d="m6 0h16c3.3 0 6 2.7 6 6v16c0 3.3-2.7 6-6 6h-16c-3.3 0-6-2.7-6-6v-16c0-3.3 2.7-6 6-6z"/>
	<g id="Clip-Path" clip-path="url(#cp1)">
		<g>
			<path class="s1" d="m19.8 22.3q-2.6 0-5.2-1.1-2.5-1.1-4.6-3.2-2.1-2.1-3.2-4.6-1.1-2.6-1.1-5.2 0-0.4 0.2-0.6 0.3-0.3 0.6-0.3h3.4q0.3 0 0.5 0.2 0.3 0.2 0.3 0.5l0.6 2.9q0 0.3-0.1 0.6 0 0.2-0.2 0.4l-2 2q0.4 0.8 1 1.5 0.5 0.7 1.2 1.4 0.7 0.6 1.4 1.2 0.7 0.5 1.5 1l1.9-2q0.2-0.1 0.5-0.2 0.3-0.1 0.6-0.1l2.9 0.6q0.3 0.1 0.5 0.3 0.2 0.2 0.2 0.5v3.4q0 0.3-0.3 0.6-0.2 0.2-0.6 0.2zm-11.6-10l1.4-1.3-0.4-2h-1.8q0.1 0.9 0.2 1.7 0.2 0.8 0.6 1.6zm7.4 7.5q0.9 0.3 1.7 0.6 0.8 0.2 1.7 0.2v-1.8l-2-0.4zm-0.8-12.5q-0.3 0-0.6-0.2-0.2-0.2-0.2-0.6 0-0.4 0.2-0.6 0.3-0.2 0.6-0.2h6.7q0.4 0 0.6 0.2 0.2 0.2 0.2 0.6 0 0.4-0.2 0.6-0.2 0.2-0.6 0.2zm0 3.4q-0.4 0-0.6-0.3-0.2-0.2-0.2-0.6 0-0.3 0.2-0.6 0.2-0.2 0.6-0.2h6.7q0.3 0 0.6 0.2 0.2 0.3 0.2 0.6 0 0.4-0.2 0.6-0.3 0.3-0.6 0.3zm0 3.3q-0.4 0-0.6-0.2-0.3-0.3-0.3-0.6 0-0.4 0.3-0.6 0.2-0.3 0.6-0.3h6.6q0.4 0 0.6 0.3 0.3 0.2 0.3 0.6 0 0.3-0.3 0.6-0.2 0.2-0.6 0.2z"/>
		</g>
	</g>
</svg>